<svg xmlns="http://www.w3.org/2000/svg" viewBox="0 0 1920 1080">
  <defs>
    <style>
      .c5a10310-a61f-4dbc-aa3f-4a4ad401514a {
        isolation: isolate;
      }

      .\35 58c05f9-11e3-400e-ba5f-11db24a7b49f {
        fill: #9adee2;
      }

      .c00eb71b-bf95-4cd6-82c7-2b64594f4d4a, .fd1ff0b1-56a1-487a-b6c1-c5acc7be7b2f {
        fill: #0ab;
      }

      .\34 b6da9e8-1c5e-442c-9096-b0a45674c312 {
        fill: #7dcdd1;
      }

      .\36 4347033-4b63-45e6-90ce-6a56b3618590, .e07cfb1e-9eef-497c-aeba-10e71c71089c {
        fill: #4f6d89;
      }

      .\36 4347033-4b63-45e6-90ce-6a56b3618590 {
        opacity: 0.33;
      }

      .ddd79a17-4bff-4557-a6ca-ded2951bdd13 {
        fill: #afe9ea;
      }

      .ffbc36f5-f573-49bf-afa8-9339daedc1bc {
        fill: #413528;
      }

      .\32 413e3ab-b6c2-4108-a423-22d00b47a989 {
        opacity: 0.2;
      }

      .\32 413e3ab-b6c2-4108-a423-22d00b47a989, .ee08ff33-4505-422a-8443-b3f844d49d83, .fd1ff0b1-56a1-487a-b6c1-c5acc7be7b2f {
        mix-blend-mode: multiply;
      }

      .\36 e50dcba-7b45-4866-bba4-0764bb038dba {
        fill: #287c34;
      }

      .ee08ff33-4505-422a-8443-b3f844d49d83 {
        fill: #81bc3e;
        opacity: 0.31;
      }

      .c34d66f3-fc64-40b6-8773-1f20ee001935 {
        fill: #00ba1f;
      }

      .fd1ff0b1-56a1-487a-b6c1-c5acc7be7b2f {
        opacity: 0.32;
      }

      .\34 8f3b614-5bfa-4274-b0d8-6adbbaf8dea0 {
        fill: #38b349;
      }

      .\35 29e251c-8715-4a2f-81c8-9b79c2887a26 {
        fill: #fff;
      }
    </style>
  </defs>
  <title>background</title>
  <g class="c5a10310-a61f-4dbc-aa3f-4a4ad401514a">
    <g id="8aae57c0-b800-499a-8571-d00e872187fd" data-name="BACKGROUND">
      <rect class="558c05f9-11e3-400e-ba5f-11db24a7b49f" width="1920" height="1091.43"/>
      <path class="c00eb71b-bf95-4cd6-82c7-2b64594f4d4a" d="M1750.3,262.19h-322a18.81,18.81,0,0,1-18.76-18.76h0a18.82,18.82,0,0,1,18.76-18.76h322a18.82,18.82,0,0,1,18.76,18.76h0A18.81,18.81,0,0,1,1750.3,262.19Z"/>
      <path class="4b6da9e8-1c5e-442c-9096-b0a45674c312" d="M1492.35,262.19H1170.29a18.81,18.81,0,0,1-18.76-18.76h0a18.82,18.82,0,0,1,18.76-18.76h322.06a18.83,18.83,0,0,1,18.76,18.76h0A18.82,18.82,0,0,1,1492.35,262.19Z"/>
      <path class="4b6da9e8-1c5e-442c-9096-b0a45674c312" d="M1962.92,262.19H1640.87a18.81,18.81,0,0,1-18.76-18.76h0a18.82,18.82,0,0,1,18.76-18.76h322.05a18.82,18.82,0,0,1,18.76,18.76h0A18.81,18.81,0,0,1,1962.92,262.19Z"/>
      <path class="c00eb71b-bf95-4cd6-82c7-2b64594f4d4a" d="M1662.75,298.15h-322a18.81,18.81,0,0,1-18.76-18.76h0a18.81,18.81,0,0,1,18.76-18.76h322a18.81,18.81,0,0,1,18.76,18.76h0A18.81,18.81,0,0,1,1662.75,298.15Z"/>
      <path class="c00eb71b-bf95-4cd6-82c7-2b64594f4d4a" d="M1804.76,224.93h-322A18.81,18.81,0,0,1,1464,206.17h0a18.82,18.82,0,0,1,18.76-18.76h322a18.82,18.82,0,0,1,18.76,18.76h0A18.81,18.81,0,0,1,1804.76,224.93Z"/>
      <path class="c00eb71b-bf95-4cd6-82c7-2b64594f4d4a" d="M1056.65,355.27H734.6a18.82,18.82,0,0,1-18.76-18.76h0a18.82,18.82,0,0,1,18.76-18.77h322.05a18.83,18.83,0,0,1,18.77,18.77h0A18.83,18.83,0,0,1,1056.65,355.27Z"/>
      <path class="4b6da9e8-1c5e-442c-9096-b0a45674c312" d="M798.7,355.27H476.64a18.83,18.83,0,0,1-18.76-18.76h0a18.83,18.83,0,0,1,18.76-18.77H798.7a18.82,18.82,0,0,1,18.76,18.77h0A18.82,18.82,0,0,1,798.7,355.27Z"/>
      <path class="4b6da9e8-1c5e-442c-9096-b0a45674c312" d="M1269.27,355.27h-322a18.82,18.82,0,0,1-18.76-18.76h0a18.82,18.82,0,0,1,18.76-18.77h322A18.82,18.82,0,0,1,1288,336.51h0A18.82,18.82,0,0,1,1269.27,355.27Z"/>
      <path class="c00eb71b-bf95-4cd6-82c7-2b64594f4d4a" d="M969.11,391.22H647.05a18.81,18.81,0,0,1-18.76-18.76h0a18.82,18.82,0,0,1,18.76-18.76H969.11a18.83,18.83,0,0,1,18.76,18.76h0A18.82,18.82,0,0,1,969.11,391.22Z"/>
      <path class="c00eb71b-bf95-4cd6-82c7-2b64594f4d4a" d="M1111.11,318h-322a18.82,18.82,0,0,1-18.76-18.76h0a18.82,18.82,0,0,1,18.76-18.77h322a18.82,18.82,0,0,1,18.76,18.77h0A18.82,18.82,0,0,1,1111.11,318Z"/>
      <g>
        <polygon class="64347033-4b63-45e6-90ce-6a56b3618590" points="408.17 679.81 408.17 620.62 381.78 620.62 381.78 672.77 306.39 652.67 306.39 1014.57 433.62 1014.57 433.62 686.6 408.17 679.81"/>
        <g>
          <g>
            <rect class="ddd79a17-4bff-4557-a6ca-ded2951bdd13" x="320.52" y="713.93" width="16.96" height="16.96"/>
            <rect class="ddd79a17-4bff-4557-a6ca-ded2951bdd13" x="348.8" y="713.93" width="16.96" height="16.96"/>
            <rect class="ddd79a17-4bff-4557-a6ca-ded2951bdd13" x="377.07" y="713.93" width="16.96" height="16.96"/>
            <rect class="ddd79a17-4bff-4557-a6ca-ded2951bdd13" x="405.35" y="713.93" width="16.96" height="16.96"/>
          </g>
          <g>
            <rect class="ddd79a17-4bff-4557-a6ca-ded2951bdd13" x="320.52" y="750.68" width="16.96" height="16.96"/>
            <rect class="ddd79a17-4bff-4557-a6ca-ded2951bdd13" x="348.8" y="750.68" width="16.96" height="16.96"/>
            <rect class="ddd79a17-4bff-4557-a6ca-ded2951bdd13" x="377.07" y="750.68" width="16.96" height="16.96"/>
            <rect class="ddd79a17-4bff-4557-a6ca-ded2951bdd13" x="405.35" y="750.68" width="16.96" height="16.96"/>
          </g>
          <g>
            <rect class="ddd79a17-4bff-4557-a6ca-ded2951bdd13" x="320.52" y="787.44" width="16.96" height="16.96"/>
            <rect class="ddd79a17-4bff-4557-a6ca-ded2951bdd13" x="348.8" y="787.44" width="16.96" height="16.96"/>
            <rect class="ddd79a17-4bff-4557-a6ca-ded2951bdd13" x="377.07" y="787.44" width="16.96" height="16.96"/>
            <rect class="ddd79a17-4bff-4557-a6ca-ded2951bdd13" x="405.35" y="787.44" width="16.96" height="16.96"/>
          </g>
        </g>
        <g>
          <g>
            <rect class="ddd79a17-4bff-4557-a6ca-ded2951bdd13" x="320.52" y="818.54" width="16.96" height="16.96"/>
            <rect class="ddd79a17-4bff-4557-a6ca-ded2951bdd13" x="348.8" y="818.54" width="16.96" height="16.96"/>
            <rect class="ddd79a17-4bff-4557-a6ca-ded2951bdd13" x="377.07" y="818.54" width="16.96" height="16.96"/>
            <rect class="ddd79a17-4bff-4557-a6ca-ded2951bdd13" x="405.35" y="818.54" width="16.96" height="16.96"/>
          </g>
          <g>
            <rect class="ddd79a17-4bff-4557-a6ca-ded2951bdd13" x="320.52" y="855.29" width="16.96" height="16.96"/>
            <rect class="ddd79a17-4bff-4557-a6ca-ded2951bdd13" x="348.8" y="855.29" width="16.96" height="16.96"/>
            <rect class="ddd79a17-4bff-4557-a6ca-ded2951bdd13" x="377.07" y="855.29" width="16.96" height="16.96"/>
            <rect class="ddd79a17-4bff-4557-a6ca-ded2951bdd13" x="405.35" y="855.29" width="16.96" height="16.96"/>
          </g>
          <g>
            <rect class="ddd79a17-4bff-4557-a6ca-ded2951bdd13" x="320.52" y="892.05" width="16.96" height="16.96"/>
            <rect class="ddd79a17-4bff-4557-a6ca-ded2951bdd13" x="348.8" y="892.05" width="16.96" height="16.96"/>
            <rect class="ddd79a17-4bff-4557-a6ca-ded2951bdd13" x="377.07" y="892.05" width="16.96" height="16.96"/>
            <rect class="ddd79a17-4bff-4557-a6ca-ded2951bdd13" x="405.35" y="892.05" width="16.96" height="16.96"/>
          </g>
        </g>
      </g>
      <g>
        <polygon class="64347033-4b63-45e6-90ce-6a56b3618590" points="1615.93 1024.94 1488.7 1024.94 1488.7 663.03 1615.93 696.96 1615.93 1024.94"/>
        <g>
          <g>
            <rect class="ddd79a17-4bff-4557-a6ca-ded2951bdd13" x="1498.59" y="713.93" width="16.96" height="16.96"/>
            <rect class="ddd79a17-4bff-4557-a6ca-ded2951bdd13" x="1526.87" y="713.93" width="16.96" height="16.96"/>
            <rect class="ddd79a17-4bff-4557-a6ca-ded2951bdd13" x="1555.14" y="713.93" width="16.96" height="16.96"/>
            <rect class="ddd79a17-4bff-4557-a6ca-ded2951bdd13" x="1583.42" y="713.93" width="16.96" height="16.96"/>
          </g>
          <g>
            <rect class="ddd79a17-4bff-4557-a6ca-ded2951bdd13" x="1498.59" y="750.68" width="16.96" height="16.96"/>
            <rect class="ddd79a17-4bff-4557-a6ca-ded2951bdd13" x="1526.87" y="750.68" width="16.96" height="16.96"/>
            <rect class="ddd79a17-4bff-4557-a6ca-ded2951bdd13" x="1555.14" y="750.68" width="16.96" height="16.96"/>
            <rect class="ddd79a17-4bff-4557-a6ca-ded2951bdd13" x="1583.42" y="750.68" width="16.96" height="16.96"/>
          </g>
          <g>
            <rect class="ddd79a17-4bff-4557-a6ca-ded2951bdd13" x="1498.59" y="787.44" width="16.96" height="16.96"/>
            <rect class="ddd79a17-4bff-4557-a6ca-ded2951bdd13" x="1526.87" y="787.44" width="16.96" height="16.96"/>
            <rect class="ddd79a17-4bff-4557-a6ca-ded2951bdd13" x="1555.14" y="787.44" width="16.96" height="16.96"/>
            <rect class="ddd79a17-4bff-4557-a6ca-ded2951bdd13" x="1583.42" y="787.44" width="16.96" height="16.96"/>
          </g>
        </g>
        <g>
          <g>
            <rect class="ddd79a17-4bff-4557-a6ca-ded2951bdd13" x="1498.59" y="818.54" width="16.96" height="16.96"/>
            <rect class="ddd79a17-4bff-4557-a6ca-ded2951bdd13" x="1526.87" y="818.54" width="16.96" height="16.96"/>
            <rect class="ddd79a17-4bff-4557-a6ca-ded2951bdd13" x="1555.14" y="818.54" width="16.96" height="16.96"/>
            <rect class="ddd79a17-4bff-4557-a6ca-ded2951bdd13" x="1583.42" y="818.54" width="16.96" height="16.96"/>
          </g>
          <g>
            <rect class="ddd79a17-4bff-4557-a6ca-ded2951bdd13" x="1498.59" y="855.29" width="16.96" height="16.96"/>
            <rect class="ddd79a17-4bff-4557-a6ca-ded2951bdd13" x="1526.87" y="855.29" width="16.96" height="16.96"/>
            <rect class="ddd79a17-4bff-4557-a6ca-ded2951bdd13" x="1555.14" y="855.29" width="16.96" height="16.96"/>
            <rect class="ddd79a17-4bff-4557-a6ca-ded2951bdd13" x="1583.42" y="855.29" width="16.96" height="16.96"/>
          </g>
          <g>
            <rect class="ddd79a17-4bff-4557-a6ca-ded2951bdd13" x="1498.59" y="892.05" width="16.96" height="16.96"/>
            <rect class="ddd79a17-4bff-4557-a6ca-ded2951bdd13" x="1526.87" y="892.05" width="16.96" height="16.96"/>
            <rect class="ddd79a17-4bff-4557-a6ca-ded2951bdd13" x="1555.14" y="892.05" width="16.96" height="16.96"/>
            <rect class="ddd79a17-4bff-4557-a6ca-ded2951bdd13" x="1583.42" y="892.05" width="16.96" height="16.96"/>
          </g>
        </g>
      </g>
      <g>
        <polygon class="64347033-4b63-45e6-90ce-6a56b3618590" points="1679.55 835.68 1679.55 814.77 1659.75 814.77 1659.75 830.4 1632 823 1632 1043.54 1709.54 1043.54 1709.54 843.68 1679.55 835.68"/>
        <g>
          <g>
            <rect class="ddd79a17-4bff-4557-a6ca-ded2951bdd13" x="1638.03" y="854.01" width="10.34" height="10.34"/>
            <rect class="ddd79a17-4bff-4557-a6ca-ded2951bdd13" x="1655.26" y="854.01" width="10.34" height="10.34"/>
            <rect class="ddd79a17-4bff-4557-a6ca-ded2951bdd13" x="1672.49" y="854.01" width="10.34" height="10.34"/>
            <rect class="ddd79a17-4bff-4557-a6ca-ded2951bdd13" x="1689.72" y="854.01" width="10.34" height="10.34"/>
          </g>
          <g>
            <rect class="ddd79a17-4bff-4557-a6ca-ded2951bdd13" x="1638.03" y="876.41" width="10.34" height="10.34"/>
            <rect class="ddd79a17-4bff-4557-a6ca-ded2951bdd13" x="1655.26" y="876.41" width="10.34" height="10.34"/>
            <rect class="ddd79a17-4bff-4557-a6ca-ded2951bdd13" x="1672.49" y="876.41" width="10.34" height="10.34"/>
            <rect class="ddd79a17-4bff-4557-a6ca-ded2951bdd13" x="1689.72" y="876.41" width="10.34" height="10.34"/>
          </g>
          <g>
            <rect class="ddd79a17-4bff-4557-a6ca-ded2951bdd13" x="1638.03" y="898.81" width="10.34" height="10.34"/>
            <rect class="ddd79a17-4bff-4557-a6ca-ded2951bdd13" x="1655.26" y="898.81" width="10.34" height="10.34"/>
            <rect class="ddd79a17-4bff-4557-a6ca-ded2951bdd13" x="1672.49" y="898.81" width="10.34" height="10.34"/>
            <rect class="ddd79a17-4bff-4557-a6ca-ded2951bdd13" x="1689.72" y="898.81" width="10.34" height="10.34"/>
          </g>
        </g>
        <g>
          <g>
            <rect class="ddd79a17-4bff-4557-a6ca-ded2951bdd13" x="1638.03" y="917.76" width="10.34" height="10.34"/>
            <rect class="ddd79a17-4bff-4557-a6ca-ded2951bdd13" x="1655.26" y="917.76" width="10.34" height="10.34"/>
            <rect class="ddd79a17-4bff-4557-a6ca-ded2951bdd13" x="1672.49" y="917.76" width="10.34" height="10.34"/>
            <rect class="ddd79a17-4bff-4557-a6ca-ded2951bdd13" x="1689.72" y="917.76" width="10.34" height="10.34"/>
          </g>
          <g>
            <rect class="ddd79a17-4bff-4557-a6ca-ded2951bdd13" x="1638.03" y="940.16" width="10.34" height="10.34"/>
            <rect class="ddd79a17-4bff-4557-a6ca-ded2951bdd13" x="1655.26" y="940.16" width="10.34" height="10.34"/>
            <rect class="ddd79a17-4bff-4557-a6ca-ded2951bdd13" x="1672.49" y="940.16" width="10.34" height="10.34"/>
            <rect class="ddd79a17-4bff-4557-a6ca-ded2951bdd13" x="1689.72" y="940.16" width="10.34" height="10.34"/>
          </g>
          <g>
            <rect class="ddd79a17-4bff-4557-a6ca-ded2951bdd13" x="1638.03" y="962.56" width="10.34" height="10.34"/>
            <rect class="ddd79a17-4bff-4557-a6ca-ded2951bdd13" x="1655.26" y="962.56" width="10.34" height="10.34"/>
            <rect class="ddd79a17-4bff-4557-a6ca-ded2951bdd13" x="1672.49" y="962.56" width="10.34" height="10.34"/>
            <rect class="ddd79a17-4bff-4557-a6ca-ded2951bdd13" x="1689.72" y="962.56" width="10.34" height="10.34"/>
          </g>
        </g>
      </g>
      <polygon class="64347033-4b63-45e6-90ce-6a56b3618590" points="886 506.58 886 433.07 859.61 433.07 859.61 497.84 784.21 472.87 784.21 922.33 911.44 922.33 911.44 515.01 886 506.58"/>
      <g>
        <g>
          <path class="ffbc36f5-f573-49bf-afa8-9339daedc1bc" d="M1729.56,1028.67s47.68-93.71,33.8-198l-56.61-72.26L1763.36,804l85.84-34.95-60.55,60.54s-4.4,158.11,8.49,185.89S1729.56,1028.67,1729.56,1028.67Z"/>
          <g class="2413e3ab-b6c2-4108-a423-22d00b47a989">
            <path class="ffbc36f5-f573-49bf-afa8-9339daedc1bc" d="M1788.65,829.62l60.55-60.54-26,10.6-48.75,48.75s-4.4,158.11,8.48,185.9c7.28,15.68-15.2,17.84-36.15,16.76,22.86,2.54,59.4,3.83,50.4-15.58C1784.25,987.73,1788.65,829.62,1788.65,829.62Z"/>
          </g>
        </g>
        <path class="6e50dcba-7b45-4866-bba4-0764bb038dba" d="M1770.84,751.08s-85.47,76-111.59-21.37c0,0-66.47,30.86-46.29-67.66,0,0-33.24,33.23-53.42-10.69s39.17-77.16,39.17-77.16-41.54,7.12-43.92-36.8,55.79-57,55.79-57-16.62-13.06-10.68-36.8,32-39.17,32-39.17-29.68-24.93-17.81-60.54,60.55-42.74,60.55-42.74-9.5-40.36,10.68-57S1734,227.57,1734,227.57s36.8-81.91,99.72-5.93c0,0,81.9-7.13,59.35,81.91,0,0,102.09-4.75,39.17,115.14,0,0,53.42-13.06,27.31,91.41,0,0,81.91,42.73,13.06,97.34,0,0,73.59,55.79-15.44,72.41,0,0,19,62.92-45.11,53.42C1912.1,733.27,1856.31,829.42,1770.84,751.08Z"/>
        <path class="ee08ff33-4505-422a-8443-b3f844d49d83" d="M1972.65,607.44c68.85-54.61-13.06-97.34-13.06-97.34,26.11-104.47-27.31-91.41-27.31-91.41,62.92-119.89-39.17-115.14-39.17-115.14,22.55-89-59.35-81.91-59.35-81.91-23.19-28-42.83-34.55-58.39-31.66.51,9.11-.53,19.82-3.76,32.56,0,0,102.09-4.75,39.18,115.15,0,0,53.42-13.06,27.3,91.4,0,0,81.91,42.74,13.06,97.35,0,0,73.6,55.79-15.43,72.41,0,0,19,62.91-45.11,53.42,0,0-55.79,96.15-141.26,17.8,0,0-18.1,16.08-40.18,24-.32,59.06,50.08,35.68,50.08,35.68,26.12,97.34,111.59,21.37,111.59,21.37,85.47,78.34,141.26-17.81,141.26-17.81,64.11,9.5,45.11-53.42,45.11-53.42C2046.24,663.23,1972.65,607.44,1972.65,607.44Z"/>
        <g>
          <path class="c34d66f3-fc64-40b6-8773-1f20ee001935" d="M1909.73,602.69a61.44,61.44,0,0,1,4.28,8.92,62.21,62.21,0,0,1,2.91,9.51,36.61,36.61,0,0,1,.83,10,21.94,21.94,0,0,1-2.87,9.89,19.63,19.63,0,0,1-7.55,7.2,33.31,33.31,0,0,1-9.74,3.31,23.73,23.73,0,0,1-2.51.37c-.84.1-1.69.24-2.53.3-1.68.07-3.37.19-5,.17s-3.35,0-5-.17l-5-.42,1.81-1.41a56.7,56.7,0,0,1-3.06,11.33,54.93,54.93,0,0,1-5.29,10.46,37.9,37.9,0,0,1-7.88,8.8,30.73,30.73,0,0,1-10.46,5.58A36.37,36.37,0,0,1,1841,688l-2.92-.23c-1-.08-1.92-.3-2.87-.45a51.94,51.94,0,0,1-5.65-1.3c-.93-.22-1.82-.6-2.73-.9s-1.82-.62-2.71-1c-1.76-.77-3.54-1.48-5.26-2.31s-3.41-1.7-5.08-2.62l-4.9-2.92c6.8,3.36,13.78,6.44,21.12,8.06a52.13,52.13,0,0,0,5.51,1c.92.09,1.84.26,2.76.29l2.78.08a33.78,33.78,0,0,0,10.78-1.71,29,29,0,0,0,9.39-5.31,37.64,37.64,0,0,0,7.1-8.24,56.77,56.77,0,0,0,7.78-20.49l.28-1.55,1.54.14,4.83.45c1.61.13,3.21.13,4.82.2s3.21-.09,4.81-.1c.8,0,1.58-.16,2.38-.23s1.59-.12,2.36-.29a30.83,30.83,0,0,0,8.92-2.8,17.29,17.29,0,0,0,6.78-6,20.65,20.65,0,0,0,2.93-8.77,37.63,37.63,0,0,0-.27-9.59A71.51,71.51,0,0,0,1909.73,602.69Z"/>
          <path class="c34d66f3-fc64-40b6-8773-1f20ee001935" d="M1671.12,546.9a61,61,0,0,0-11.24,6.38,32.3,32.3,0,0,0-4.8,4.23,16,16,0,0,0-3.31,5.24,9.65,9.65,0,0,0-.2,5.89,13.3,13.3,0,0,0,3,5.21,39.42,39.42,0,0,0,10,7.62l1.39.81-1.19,1.14a83.87,83.87,0,0,0-13.36,16.25,40.88,40.88,0,0,0-4.35,9.35,19.36,19.36,0,0,0-.6,9.78,15.21,15.21,0,0,0,5.09,8.09,31.68,31.68,0,0,0,8.78,5.07,85,85,0,0,0,20.44,4.75l1.57.19-.16,1.62a75.65,75.65,0,0,0,.91,23.11,42.42,42.42,0,0,0,3.77,10.83,25.63,25.63,0,0,0,7.17,8.66,24.56,24.56,0,0,0,10.35,4.53c.94.19,1.91.26,2.86.39a20.06,20.06,0,0,0,2.9.16l1.45,0,.73,0,.73-.06L1716,686a28.66,28.66,0,0,0,2.91-.4c1-.16,1.94-.29,2.91-.48,1.9-.48,3.84-.87,5.73-1.42s3.78-1.15,5.65-1.79l5.58-2-5.43,2.43c-1.83.79-3.72,1.41-5.58,2.12s-3.81,1.15-5.72,1.73c-1,.24-2,.43-2.92.64a29.72,29.72,0,0,1-3,.57,41.42,41.42,0,0,1-12.08.17,26.37,26.37,0,0,1-11.39-4.53,28.17,28.17,0,0,1-8.12-9.26,42.69,42.69,0,0,1-4.29-11.46,70.82,70.82,0,0,1-1.6-12,74.85,74.85,0,0,1,.33-12.14l1.4,1.81a86.62,86.62,0,0,1-21.3-4.86,34.61,34.61,0,0,1-9.69-5.69,18.44,18.44,0,0,1-6.07-9.83,21.8,21.8,0,0,1,.78-11.41,43.28,43.28,0,0,1,4.82-10,72.37,72.37,0,0,1,6.58-8.74,87.6,87.6,0,0,1,7.65-7.77l.19,1.95a39.57,39.57,0,0,1-10.3-8.43,15,15,0,0,1-3.22-6,10.85,10.85,0,0,1,.54-6.87,17.14,17.14,0,0,1,3.86-5.5,33.11,33.11,0,0,1,5.15-4.1A54.66,54.66,0,0,1,1671.12,546.9Z"/>
          <path class="c34d66f3-fc64-40b6-8773-1f20ee001935" d="M1791,524.34a117.6,117.6,0,0,0-6.45,24.21c-1.18,8.23-1.47,16.68.39,24.68a37.09,37.09,0,0,0,4.54,11.25,31.1,31.1,0,0,0,8.19,8.76,39,39,0,0,0,10.78,5.49,61.15,61.15,0,0,0,11.9,2.9,58.24,58.24,0,0,0,24.25-1.72,53.2,53.2,0,0,0,21.14-11.74,45.11,45.11,0,0,0,12.74-20.35,47.72,47.72,0,0,0,.34-24.18l-.39-1.74,1.76.2a53.22,53.22,0,0,0,15-.42c4.87-.89,9.75-2.77,13-6.48a14.58,14.58,0,0,0,3.21-6.53,11.39,11.39,0,0,0,.3-1.84l.12-.93c0-.31,0-.63,0-.94,0-.63,0-1.26,0-1.89l-.17-1.88a14.69,14.69,0,0,0-.28-1.88l-.34-1.88c-.33-1.23-.64-2.47-1-3.69s-.79-2.44-1.24-3.64l-1.44-3.56a49.33,49.33,0,0,1,5.12,14.53l.27,1.94c.06.65,0,1.31.08,2,0,.33,0,.65,0,1l-.07,1a11.79,11.79,0,0,1-.24,2,15.8,15.8,0,0,1-3.19,7.28,18.53,18.53,0,0,1-6.27,5,31.05,31.05,0,0,1-7.49,2.58,53.18,53.18,0,0,1-15.68.86l1.36-1.55a56.46,56.46,0,0,1,1.76,12.76,45.36,45.36,0,0,1-1.65,12.84,46.21,46.21,0,0,1-5.17,11.89,48.64,48.64,0,0,1-8.23,10,55.32,55.32,0,0,1-22.44,12.54,61.18,61.18,0,0,1-25.6,1.69,64.18,64.18,0,0,1-12.47-3.22,42,42,0,0,1-11.46-6.06,33.88,33.88,0,0,1-8.66-9.7,38.7,38.7,0,0,1-4.53-12.1c-1.67-8.45-1.11-17.08.51-25.35A107.37,107.37,0,0,1,1791,524.34Z"/>
          <path class="c34d66f3-fc64-40b6-8773-1f20ee001935" d="M1660.44,437.69a60.5,60.5,0,0,0-2.37,8,45.45,45.45,0,0,0-1.11,8.18,27.26,27.26,0,0,0,.84,8,15.49,15.49,0,0,0,3.77,6.78,16.65,16.65,0,0,0,6.56,4.06,31.52,31.52,0,0,0,7.83,1.47,69.67,69.67,0,0,0,16.25-1.3l2.81-.5-1,2.69a95.45,95.45,0,0,0-3.76,12,85.3,85.3,0,0,0-2.15,12.33,44.27,44.27,0,0,0,.44,12.29,21.1,21.1,0,0,0,5,10.66,20.29,20.29,0,0,0,10.31,5.78c1,.27,2,.42,3,.6s2.05.27,3.09.32a50.42,50.42,0,0,0,6.27,0,90.85,90.85,0,0,0,12.55-1.67c4.17-.84,8.29-1.91,12.4-3.06a116.41,116.41,0,0,1-12.16,4.07,78,78,0,0,1-12.65,2.52,52.18,52.18,0,0,1-6.51.3,32.36,32.36,0,0,1-6.55-.72,22.43,22.43,0,0,1-11.86-6.19,21.49,21.49,0,0,1-3.89-5.62,28.34,28.34,0,0,1-2.14-6.4,46.45,46.45,0,0,1-.6-13.19,78.1,78.1,0,0,1,2.21-12.85,99.33,99.33,0,0,1,4-12.39l1.75,2.19a71.18,71.18,0,0,1-17,1l-2.16-.28a16,16,0,0,1-2.14-.38l-2.12-.51-2.08-.73a18.82,18.82,0,0,1-7.33-4.94,17.52,17.52,0,0,1-3.89-7.87,26.61,26.61,0,0,1-.37-8.57,46.12,46.12,0,0,1,1.72-8.28A49,49,0,0,1,1660.44,437.69Z"/>
          <path class="c34d66f3-fc64-40b6-8773-1f20ee001935" d="M1810,459.05a36.83,36.83,0,0,0,4.52,4,41.75,41.75,0,0,0,5,3.28,30.93,30.93,0,0,0,11.14,3.74,24.88,24.88,0,0,0,11.46-1.24,32.74,32.74,0,0,0,10-5.84,27.12,27.12,0,0,0,9.2-14.23,32.55,32.55,0,0,0,.89-5.66,45.78,45.78,0,0,0-5-22.4l-1.13-2.25,2.51-.18a23.07,23.07,0,0,0,3-.44c1-.22,2-.5,3.06-.81a30.11,30.11,0,0,0,5.79-2.52,25.4,25.4,0,0,0,9-8.59,31.72,31.72,0,0,0,4.41-11.85,50.79,50.79,0,0,0,.49-12.92,28.6,28.6,0,0,0-3.85-12.09,24.05,24.05,0,0,0-9.26-8.66,37.83,37.83,0,0,0-12.41-4.07,56,56,0,0,0-6.6-.63,49.34,49.34,0,0,0-6.66.13,50.76,50.76,0,0,1,13.38-.41,38.59,38.59,0,0,1,13.07,3.48,26,26,0,0,1,10.39,8.94,31,31,0,0,1,4.6,13c.13,1.14.2,2.29.31,3.43s0,2.28,0,3.42a51,51,0,0,1-.57,6.86,34.13,34.13,0,0,1-4.65,13.07,28.67,28.67,0,0,1-10.07,9.72,33.77,33.77,0,0,1-6.42,2.85,30.33,30.33,0,0,1-7,1.38l1.38-2.43a45.68,45.68,0,0,1,2.45,5.78,53,53,0,0,1,1.72,6,41.85,41.85,0,0,1,1,12.44,35.59,35.59,0,0,1-1.09,6.21,32.83,32.83,0,0,1-2.36,5.88,30.53,30.53,0,0,1-8.12,9.51,33.31,33.31,0,0,1-10.92,5.88,25.18,25.18,0,0,1-6.14,1.13,24.28,24.28,0,0,1-6.2-.34A32.08,32.08,0,0,1,1819.1,467,38.67,38.67,0,0,1,1810,459.05Z"/>
          <path class="c34d66f3-fc64-40b6-8773-1f20ee001935" d="M1677.06,380.71a54,54,0,0,1-1.35-9.66,51.14,51.14,0,0,1,.36-9.81,35.41,35.41,0,0,1,2.59-9.56,26.21,26.21,0,0,1,5.7-8.28,24.63,24.63,0,0,1,8.58-5.37,25,25,0,0,1,2.4-.8l1.22-.36,1.23-.25c.83-.16,1.65-.35,2.48-.47l2.5-.26a67.71,67.71,0,0,1,19.75,1.73l-1.91,1.77a86.19,86.19,0,0,1-.55-16.2,69,69,0,0,1,2.7-16,44.53,44.53,0,0,1,7.35-14.66,33,33,0,0,1,13.07-10A46.81,46.81,0,0,1,1759.1,279a45.05,45.05,0,0,1,16.07,2.08,48.07,48.07,0,0,1,14.23,7.47A49.66,49.66,0,0,1,1800.52,300a52.35,52.35,0,0,0-25.9-17,45.62,45.62,0,0,0-15.36-1.43,46.6,46.6,0,0,0-14.9,3.65,30,30,0,0,0-11.73,9.31,41.3,41.3,0,0,0-6.72,13.64,80.12,80.12,0,0,0-2.18,30.8l.26,2.28-2.17-.5a64.86,64.86,0,0,0-18.85-2l-2.34.18c-.78.08-1.54.24-2.32.36l-1.15.2-1.12.3c-.75.23-1.52.36-2.24.66a23.11,23.11,0,0,0-8,4.63,24.22,24.22,0,0,0-5.57,7.43,36.24,36.24,0,0,0-3,9,51.14,51.14,0,0,0-.9,9.58A61.59,61.59,0,0,0,1677.06,380.71Z"/>
        </g>
        <g>
          <path class="c00eb71b-bf95-4cd6-82c7-2b64594f4d4a" d="M1743.15,639.82s-12.71,12.12-18.32,2.95,4.14-13.29,4.14-13.29-12.42-8.87-3.55-18.92,15.37,3,15.37,3-1.78-12.71,9.16-11.83,10.64,13.6,8.27,17.15c0,0,8.87-3,12.12,2.95s-2.66,15.07-9.46,13.89c0,0,.59,7.39-5.91,10.05S1743.15,639.82,1743.15,639.82Z"/>
          <path class="fd1ff0b1-56a1-487a-b6c1-c5acc7be7b2f" d="M1770.34,621.79c-3.25-5.91-12.12-2.95-12.12-2.95,2.37-3.55,2.66-16.26-8.27-17.15-3.2-.25-5.31.65-6.69,2.06,2.67,0,5.82.66,7.49,3.69,3.25,5.91-2.66,15.08-9.45,13.89,0,0,.59,7.39-5.91,10-2.86,1.17-5.49.17-7.54-1.32-2.38,1.44-7.43,5.53-3,12.71,5.61,9.17,18.32-2.95,18.32-2.95s5.32,8.57,11.82,5.91,5.91-10.05,5.91-10.05C1767.68,636.86,1773.59,627.7,1770.34,621.79Z"/>
        </g>
        <g>
          <path class="c00eb71b-bf95-4cd6-82c7-2b64594f4d4a" d="M1843.94,352.38s-12.71,12.11-18.32,2.95,4.13-13.3,4.13-13.3-12.41-8.86-3.54-18.91,15.36,3,15.36,3-1.77-12.71,9.17-11.83,10.64,13.6,8.27,17.15c0,0,8.87-3,12.12,3s-2.66,15.07-9.46,13.89c0,0,.59,7.39-5.91,10.05S1843.94,352.38,1843.94,352.38Z"/>
          <path class="fd1ff0b1-56a1-487a-b6c1-c5acc7be7b2f" d="M1871.13,334.35c-3.25-5.91-12.12-3-12.12-3,2.37-3.55,2.66-16.26-8.27-17.15-3.2-.25-5.31.65-6.7,2.06,2.68,0,5.83.65,7.5,3.69,3.25,5.91-2.66,15.08-9.45,13.89,0,0,.59,7.39-5.92,10.05-2.85,1.17-5.48.17-7.53-1.32-2.38,1.44-7.43,5.53-3,12.71,5.61,9.16,18.32-2.95,18.32-2.95s5.32,8.57,11.82,5.91,5.91-10.05,5.91-10.05C1868.47,349.42,1874.38,340.26,1871.13,334.35Z"/>
        </g>
        <g>
          <path class="c00eb71b-bf95-4cd6-82c7-2b64594f4d4a" d="M1908.76,579s-12.71,12.11-18.32,3,4.13-13.3,4.13-13.3-12.41-8.86-3.54-18.91,15.36,3,15.36,3-1.77-12.7,9.17-11.82,10.64,13.6,8.27,17.14c0,0,8.87-2.95,12.12,3s-2.66,15.07-9.46,13.89c0,0,.59,7.39-5.91,10S1908.76,579,1908.76,579Z"/>
          <path class="fd1ff0b1-56a1-487a-b6c1-c5acc7be7b2f" d="M1936,561c-3.25-5.91-12.12-3-12.12-3,2.37-3.54,2.66-16.25-8.27-17.14-3.2-.26-5.31.65-6.7,2.06,2.68,0,5.83.65,7.5,3.69,3.25,5.91-2.66,15.07-9.45,13.89,0,0,.59,7.39-5.92,10.05-2.85,1.17-5.48.17-7.53-1.32-2.38,1.43-7.43,5.53-3,12.71,5.61,9.16,18.32-3,18.32-3s5.32,8.57,11.82,5.91,5.91-10,5.91-10C1933.29,576.05,1939.2,566.89,1936,561Z"/>
        </g>
        <g>
          <path class="c00eb71b-bf95-4cd6-82c7-2b64594f4d4a" d="M1711.92,449s-12.7,12.11-18.32,2.95,4.14-13.3,4.14-13.3-12.41-8.86-3.55-18.91,15.37,2.95,15.37,2.95-1.77-12.7,9.16-11.82,10.64,13.6,8.28,17.14c0,0,8.86-2.95,12.11,3s-2.66,15.07-9.45,13.89c0,0,.59,7.39-5.92,10.05S1711.92,449,1711.92,449Z"/>
          <path class="fd1ff0b1-56a1-487a-b6c1-c5acc7be7b2f" d="M1739.11,430.92c-3.25-5.91-12.11-3-12.11-3,2.36-3.54,2.66-16.25-8.28-17.14-3.2-.26-5.3.65-6.69,2.06,2.67,0,5.83.65,7.5,3.69,3.25,5.91-2.66,15.07-9.46,13.89,0,0,.59,7.39-5.91,10.05-2.86,1.17-5.48.17-7.53-1.32-2.39,1.43-7.43,5.53-3,12.71,5.62,9.16,18.32-2.95,18.32-2.95s5.32,8.57,11.82,5.91,5.92-10.05,5.92-10.05C1736.45,446,1742.36,436.83,1739.11,430.92Z"/>
        </g>
      </g>
      <circle class="48f3b614-5bfa-4274-b0d8-6adbbaf8dea0" cx="256.76" cy="1011.29" r="40.95" transform="translate(-158.67 54.19) rotate(-9.22)"/>
      <path class="48f3b614-5bfa-4274-b0d8-6adbbaf8dea0" d="M942.73,991.89a30.62,30.62,0,1,1-30.62-30.62A30.62,30.62,0,0,1,942.73,991.89Z"/>
      <g>
        <g>
          <path class="6e50dcba-7b45-4866-bba4-0764bb038dba" d="M151.31,981.35A60.29,60.29,0,1,0,91,1041.65,60.29,60.29,0,0,0,151.31,981.35Z"/>
          <path class="6e50dcba-7b45-4866-bba4-0764bb038dba" d="M291.43,962.76a88.35,88.35,0,1,0-88.34,88.35A88.34,88.34,0,0,0,291.43,962.76Z"/>
          <circle class="6e50dcba-7b45-4866-bba4-0764bb038dba" cx="322.87" cy="981.84" r="74.26" transform="translate(-314.96 168.56) rotate(-19.9)"/>
          <path class="6e50dcba-7b45-4866-bba4-0764bb038dba" d="M479.13,988a55.68,55.68,0,1,0-55.68,55.68A55.68,55.68,0,0,0,479.13,988Z"/>
          <circle class="6e50dcba-7b45-4866-bba4-0764bb038dba" cx="504" cy="970.34" r="55.68" transform="translate(-174.41 112.82) rotate(-10.9)"/>
          <circle class="6e50dcba-7b45-4866-bba4-0764bb038dba" cx="623.02" cy="962.76" r="80.48" transform="translate(-498.3 722.53) rotate(-45)"/>
          <path class="6e50dcba-7b45-4866-bba4-0764bb038dba" d="M1099.87,941a74.26,74.26,0,1,0-74.26,74.27A74.26,74.26,0,0,0,1099.87,941Z"/>
          <path class="6e50dcba-7b45-4866-bba4-0764bb038dba" d="M1181.87,947.17a55.68,55.68,0,1,0-55.68,55.68A55.68,55.68,0,0,0,1181.87,947.17Z"/>
          <path class="6e50dcba-7b45-4866-bba4-0764bb038dba" d="M1262.41,929.54a55.68,55.68,0,1,0-55.67,55.67A55.67,55.67,0,0,0,1262.41,929.54Z"/>
          <circle class="6e50dcba-7b45-4866-bba4-0764bb038dba" cx="1325.76" cy="921.96" r="80.48" transform="translate(-176.36 329.26) rotate(-13.28)"/>
          <circle class="6e50dcba-7b45-4866-bba4-0764bb038dba" cx="836.75" cy="962.76" r="80.48" transform="translate(-435.7 873.66) rotate(-45)"/>
        </g>
        <g>
          <g>
            <path class="c34d66f3-fc64-40b6-8773-1f20ee001935" d="M908.27,986.82a36.08,36.08,0,1,0-36.08,36.08A36.08,36.08,0,0,0,908.27,986.82Z"/>
            <path class="c34d66f3-fc64-40b6-8773-1f20ee001935" d="M1001.24,964.6a57.62,57.62,0,1,0-57.61,57.62A57.61,57.61,0,0,0,1001.24,964.6Z"/>
            <circle class="c34d66f3-fc64-40b6-8773-1f20ee001935" cx="1035.18" cy="981.35" r="41.55"/>
          </g>
          <path class="c34d66f3-fc64-40b6-8773-1f20ee001935" d="M131.46,1003.2A40.44,40.44,0,1,0,91,1043.64,40.45,40.45,0,0,0,131.46,1003.2Z"/>
          <circle class="c34d66f3-fc64-40b6-8773-1f20ee001935" cx="165.08" cy="995.12" r="62.82"/>
          <path class="c34d66f3-fc64-40b6-8773-1f20ee001935" d="M397.14,995.12a58.35,58.35,0,1,0-58.35,58.35A58.36,58.36,0,0,0,397.14,995.12Z"/>
          <path class="c34d66f3-fc64-40b6-8773-1f20ee001935" d="M448.54,1001a30.62,30.62,0,1,1-30.61-30.62A30.6,30.6,0,0,1,448.54,1001Z"/>
          <circle class="c34d66f3-fc64-40b6-8773-1f20ee001935" cx="481.85" cy="987.98" r="41.39" transform="translate(-547.04 1374.85) rotate(-84.61)"/>
          <path class="c34d66f3-fc64-40b6-8773-1f20ee001935" d="M623,981.84a59.51,59.51,0,1,1-59.51-59.51A59.51,59.51,0,0,1,623,981.84Z"/>
          <circle class="c34d66f3-fc64-40b6-8773-1f20ee001935" cx="659.39" cy="985.82" r="59.5" transform="translate(-419.32 1478.78) rotate(-80.78)"/>
          <circle class="c34d66f3-fc64-40b6-8773-1f20ee001935" cx="763.37" cy="974.31" r="64.12" transform="translate(-278.36 1642.74) rotate(-84.61)"/>
          <circle class="c34d66f3-fc64-40b6-8773-1f20ee001935" cx="851.75" cy="1002.05" r="48.52"/>
          <path class="c34d66f3-fc64-40b6-8773-1f20ee001935" d="M1117.2,972.77a59.51,59.51,0,1,1-59.51-59.51A59.51,59.51,0,0,1,1117.2,972.77Z"/>
          <circle class="c34d66f3-fc64-40b6-8773-1f20ee001935" cx="1153.58" cy="1003.95" r="59.5" transform="translate(-22.2 1981.82) rotate(-80.78)"/>
          <path class="c34d66f3-fc64-40b6-8773-1f20ee001935" d="M1321.67,965.24a64.12,64.12,0,1,1-64.12-64.12A64.12,64.12,0,0,1,1321.67,965.24Z"/>
        </g>
      </g>
      <path class="48f3b614-5bfa-4274-b0d8-6adbbaf8dea0" d="M1394.46,993a48.53,48.53,0,1,1-48.52-48.53A48.52,48.52,0,0,1,1394.46,993Z"/>
      <path class="6e50dcba-7b45-4866-bba4-0764bb038dba" d="M1885.43,1117.72H33.59c-24.48,0-44.33-25.73-44.33-57.48h0c0-31.75,19.85-57.48,44.33-57.48H1885.43c24.48,0,44.33,25.73,44.33,57.48h0C1929.76,1092,1909.91,1117.72,1885.43,1117.72Z"/>
      <path class="e07cfb1e-9eef-497c-aeba-10e71c71089c" d="M1323.24,642.14l2.6,1.65,1.26-1.87c-1.12-.2-2.21-.44-3.29-.72Z"/>
      <g>
        <g>
          <rect class="ddd79a17-4bff-4557-a6ca-ded2951bdd13" x="798.35" y="526.38" width="16.96" height="16.96"/>
          <rect class="ddd79a17-4bff-4557-a6ca-ded2951bdd13" x="826.62" y="526.38" width="16.96" height="16.96"/>
          <rect class="ddd79a17-4bff-4557-a6ca-ded2951bdd13" x="854.9" y="526.38" width="16.96" height="16.96"/>
          <rect class="ddd79a17-4bff-4557-a6ca-ded2951bdd13" x="883.17" y="526.38" width="16.96" height="16.96"/>
        </g>
        <g>
          <rect class="ddd79a17-4bff-4557-a6ca-ded2951bdd13" x="798.35" y="563.13" width="16.96" height="16.96"/>
          <rect class="ddd79a17-4bff-4557-a6ca-ded2951bdd13" x="826.62" y="563.13" width="16.96" height="16.96"/>
          <rect class="ddd79a17-4bff-4557-a6ca-ded2951bdd13" x="854.9" y="563.13" width="16.96" height="16.96"/>
          <rect class="ddd79a17-4bff-4557-a6ca-ded2951bdd13" x="883.17" y="563.13" width="16.96" height="16.96"/>
        </g>
        <g>
          <rect class="ddd79a17-4bff-4557-a6ca-ded2951bdd13" x="798.35" y="599.89" width="16.96" height="16.96"/>
          <rect class="ddd79a17-4bff-4557-a6ca-ded2951bdd13" x="826.62" y="599.89" width="16.96" height="16.96"/>
          <rect class="ddd79a17-4bff-4557-a6ca-ded2951bdd13" x="854.9" y="599.89" width="16.96" height="16.96"/>
          <rect class="ddd79a17-4bff-4557-a6ca-ded2951bdd13" x="883.17" y="599.89" width="16.96" height="16.96"/>
        </g>
      </g>
      <g>
        <g>
          <rect class="ddd79a17-4bff-4557-a6ca-ded2951bdd13" x="798.35" y="630.99" width="16.96" height="16.96"/>
          <rect class="ddd79a17-4bff-4557-a6ca-ded2951bdd13" x="826.62" y="630.99" width="16.96" height="16.96"/>
          <rect class="ddd79a17-4bff-4557-a6ca-ded2951bdd13" x="854.9" y="630.99" width="16.96" height="16.96"/>
          <rect class="ddd79a17-4bff-4557-a6ca-ded2951bdd13" x="883.17" y="630.99" width="16.96" height="16.96"/>
        </g>
        <g>
          <rect class="ddd79a17-4bff-4557-a6ca-ded2951bdd13" x="798.35" y="667.75" width="16.96" height="16.96"/>
          <rect class="ddd79a17-4bff-4557-a6ca-ded2951bdd13" x="826.62" y="667.75" width="16.96" height="16.96"/>
          <rect class="ddd79a17-4bff-4557-a6ca-ded2951bdd13" x="854.9" y="667.75" width="16.96" height="16.96"/>
          <rect class="ddd79a17-4bff-4557-a6ca-ded2951bdd13" x="883.17" y="667.75" width="16.96" height="16.96"/>
        </g>
        <g>
          <rect class="ddd79a17-4bff-4557-a6ca-ded2951bdd13" x="798.35" y="704.5" width="16.96" height="16.96"/>
          <rect class="ddd79a17-4bff-4557-a6ca-ded2951bdd13" x="826.62" y="704.5" width="16.96" height="16.96"/>
          <rect class="ddd79a17-4bff-4557-a6ca-ded2951bdd13" x="854.9" y="704.5" width="16.96" height="16.96"/>
          <rect class="ddd79a17-4bff-4557-a6ca-ded2951bdd13" x="883.17" y="704.5" width="16.96" height="16.96"/>
        </g>
      </g>
      <path class="529e251c-8715-4a2f-81c8-9b79c2887a26" d="M1424.86,112.59s-28.59-5.16-35.15,29.52c0,0-18.74-13.59-37.49,5.63s-9.37,47.8,7.5,62.33,54.36,6.09,54.36,6.09,7.5,17.34,32.34,13.13c0,0,9.38,16.4,36.09,15.46s44-12.18,53-33.27c0,0,10.78,11.24,25.78,4.68s8-21.09,8-21.09,29.06,16.41,43.59-16.4-18.28-46.4-31.4-43.59c0,0,10.78-33.74-19.68-49.68s-46.87,22-46.87,22-10.78-18.28-29.53-2.81c0,0-8-26.71-36.55-23.43S1424.86,112.59,1424.86,112.59Z"/>
      <path class="529e251c-8715-4a2f-81c8-9b79c2887a26" d="M467.36,268.59s-35.18-6.34-43.25,36.33c0,0-23.07-16.72-46.14,6.92s-11.53,58.83,9.23,76.7,66.9,7.5,66.9,7.5,9.22,21.34,39.79,16.15c0,0,11.53,20.18,44.41,19s54.2-15,65.16-41c0,0,13.27,13.85,31.72,5.77s9.8-26,9.8-26,35.76,20.18,53.64-20.18-22.49-57.1-38.64-53.64c0,0,13.26-41.52-24.22-61.13s-57.67,27.11-57.67,27.11-13.27-22.49-36.33-3.46c0,0-9.81-32.87-45-28.84S467.36,268.59,467.36,268.59Z"/>
    </g>
  </g>
</svg>
